<svg width="31" height="31" viewBox="0 0 31 31" fill="none" xmlns="http://www.w3.org/2000/svg">
<circle cx="15.5" cy="15.5" r="15.5" fill="#D3D3D3"/>
<g clip-path="url(#clip0_268_5418)">
<path d="M13.5961 5.99999C13.4845 6.0166 13.3779 6.05756 13.2838 6.11999C13.2838 6.11999 12.3107 6.7323 11.2646 7.39461C10.2184 8.05615 9.05458 8.78538 8.78843 8.93307L8.73997 8.95615C7.77381 9.5523 7.57304 10.5261 7.53843 11.0723C7.53612 11.0977 7.53843 11.1185 7.53843 11.1454C7.52997 11.35 7.53843 11.4815 7.53843 11.4815V21.53C7.53843 22.99 9.24074 23.6923 10.8561 23.6923C11.3946 23.6923 11.933 23.6054 12.3946 23.4515C12.7023 23.2977 12.923 22.99 12.923 22.6823V14.6054C12.923 12.8361 13.3077 12.0054 14.4615 11.3131C14.7692 11.1592 17.9954 8.9323 17.9954 8.9323C18.1492 8.77846 18.3077 8.46615 18.3077 8.23538V8.16307C18.3077 7.85538 18.1538 7.61999 17.923 7.46615C17.6923 7.3123 17.3846 7.3123 17.1538 7.46615C17.0769 7.54307 12.3846 10.7023 11.3846 11.2408C10.3846 11.8561 9.45151 12.0046 9.22074 11.6969C9.1492 11.6254 9.08689 11.4061 9.07689 11.1923V11.1438C9.07766 10.9346 9.13151 10.5408 9.55766 10.2785C9.98997 10.0377 11.063 9.3523 12.1061 8.6923C12.5469 8.41307 12.6015 8.38307 12.9469 8.16307C12.9924 8.35099 13.1069 8.5149 13.2678 8.62216C13.4286 8.72943 13.624 8.77219 13.8149 8.74193C14.0059 8.71167 14.1785 8.61061 14.2983 8.45887C14.4181 8.30713 14.4764 8.11584 14.4615 7.92307V6.76922C14.4624 6.65958 14.4398 6.55102 14.3953 6.45082C14.3507 6.35063 14.2853 6.2611 14.2033 6.18826C14.1214 6.11541 14.0248 6.06093 13.9201 6.02846C13.8154 5.99599 13.7049 5.98628 13.5961 5.99999ZM19.75 8.6923C19.6276 8.71265 19.5121 8.76226 19.413 8.83692C19.413 8.83692 15.5407 11.4423 14.87 11.8892L14.8461 11.9138C14.2892 12.3315 13.9592 12.8285 13.8123 13.2831C13.7304 13.5396 13.6899 13.8076 13.6923 14.0769V14.3177C13.6912 14.3415 13.6912 14.3654 13.6923 14.3892V23.6923C13.6923 25.1538 15.3754 26 16.9138 26C17.6061 26 18.2307 25.8508 18.6923 25.5431C19.6154 25.0046 24.0769 21.5292 24.0769 21.5292C24.3077 21.3754 24.4615 21.1585 24.4615 20.9277V10.9277C24.4615 10.5431 24.3123 10.3123 24.0046 10.1585C23.7738 10.0046 23.3946 10.0769 23.1638 10.2308C21.933 11.1538 18.62 13.76 17.8507 14.2215C16.7738 14.8369 15.7592 14.9908 15.3746 14.6061C15.2207 14.4523 15.2307 14.3077 15.2307 14.0769C15.2348 13.9436 15.251 13.8313 15.2792 13.74C15.3223 13.6061 15.41 13.4415 15.7354 13.1877C15.7507 13.1754 15.743 13.1761 15.7592 13.1638C16.3154 12.7923 18.0161 11.6331 19.1254 10.8792C19.1882 11.0478 19.3081 11.189 19.4643 11.2783C19.6205 11.3676 19.8031 11.3994 19.9803 11.368C20.1574 11.3366 20.318 11.2441 20.434 11.1066C20.5501 10.9691 20.6142 10.7953 20.6154 10.6154V9.46153C20.6162 9.35189 20.5936 9.24333 20.5491 9.14313C20.5046 9.04293 20.4391 8.95341 20.3572 8.88057C20.2752 8.80772 20.1787 8.75324 20.0739 8.72077C19.9692 8.6883 19.8588 8.67859 19.75 8.6923ZM22.923 14.3177V15.8561L19.0769 18.8361V17.2977L22.923 14.3177Z" fill="#333333"/>
</g>
<defs>
<clipPath id="clip0_268_5418">
<rect width="20" height="20" fill="white" transform="translate(6 6)"/>
</clipPath>
</defs>
</svg>
